<svg xmlns="http://www.w3.org/2000/svg" xmlns:xlink="http://www.w3.org/1999/xlink" width="146" height="148" xmlns:v="https://vecta.io/nano"><path d="M23.055 65.025s-5.941 55.606 20.14 77.21c0 0-36.722-2.533-41.538-43.223s8.431-52.472 8.431-52.472l12.967 18.485" fill="#bd8167"/><path d="M22.457 64.961c-.002.016-.586 5.482-.586 13.657.001 8.973.702 21.208 3.659 33.092s8.173 23.435 17.279 30.983l.385-.46.042-.596-.095-.008c-1.023-.087-10.132-1.029-19.512-6.808-9.379-5.787-19.054-16.345-21.376-35.88-.738-6.237-1.05-11.788-1.05-16.716.001-13.557 2.359-22.394 4.695-27.827 1.169-2.716 2.331-4.583 3.194-5.763a15.31 15.31 0 0 1 1.033-1.278c.122-.134.218-.23.28-.291l.068-.066.014-.014.002-.001c.247-.22.269-.598.047-.845s-.603-.267-.851-.047C9.559 46.197-.007 54.84 0 82.226c0 4.978.315 10.575 1.058 16.855 2.42 20.527 12.957 31.535 22.868 37.316 9.91 5.791 19.173 6.428 19.227 6.434a.6.6 0 0 0 .6-.374c.097-.241.028-.517-.173-.683-8.812-7.293-13.961-18.605-16.882-30.351s-3.624-23.895-3.624-32.805a162.77 162.77 0 0 1 .29-9.816l.199-2.749.09-.966a.6.6 0 1 0-1.197-.127" fill="#1a1919"/><path d="M109.974 125.295c-15.865 17.452-66.887 20.913-85.749.17-8.881-9.766-4.51-25.26-4.51-25.26S-.013 61.483 13.862 44.699s46.478-29.25 77.909-17.45 18.203 98.046 18.203 98.046" fill="#ffeeda"/><path d="M109.602 124.96c-4.064 4.474-10.554 8.059-18.263 10.508s-16.629 3.77-25.54 3.769c-16.22.007-32.382-4.388-41.202-14.107-4.356-4.784-5.457-11.029-5.456-16.077a37.7 37.7 0 0 1 .531-6.229 31.41 31.41 0 0 1 .364-1.833l.118-.489.044-.163.052-.187-.088-.173c0-.001-.166-.325-.458-.935C17.647 94.776 9.41 76.618 9.419 61.186c0-6.203 1.324-11.932 4.831-16.171 9.952-12.048 29.783-21.919 51.831-21.912 8.322 0 16.961 1.401 25.515 4.612 4.155 1.561 7.517 4.456 10.241 8.337 8.181 11.638 10.41 32.144 10.399 50.537 0 10.323-.689 19.986-1.379 27.065a274.24 274.24 0 0 1-.948 8.441l-.312 2.317-.118.809.992.151c.002-.015 2.769-18.048 2.769-38.782-.001-12.316-.974-25.584-4.102-36.62-1.565-5.518-3.668-10.48-6.478-14.487s-6.332-7.057-10.709-8.699c-8.672-3.256-17.433-4.676-25.869-4.676-22.351.007-42.407 9.953-52.605 22.276-3.714 4.495-5.059 10.47-5.06 16.804.002 9.011 2.719 18.804 5.428 26.361s5.418 12.871 5.424 12.883l.447-.224-.483-.135c-.007.028-1.093 3.877-1.094 8.982.001 5.18 1.119 11.688 5.715 16.747 9.152 10.045 25.557 14.428 41.947 14.435 9.011 0 18.023-1.331 25.846-3.817s14.457-6.123 18.701-10.788l-.744-.669" fill="#1a1919"/><path d="M22.209 100.05s-3.555-26.803 3.238-30.103l6.792-3.3s4.656 18.149 10.785 23.432c-.752-8.974 5.433-19.418 5.433-19.418s10.366 20.913 18.892 23.656c2.007-6.481 8.026-40.632 8.026-40.632l2.005 40.134s18.81-8.226 17.28-23.946c6.583 11.718 8.802 51.366.025 60.839l-2.257 3.169 19.309-11.146-.651-61.078-23.674-13.955-34.609-11.218s-27.586 7.977-29.091 9.223-9.78 29.166-9.78 29.166-3.511 18.197 8.277 25.177" fill="#f9d8be"/><path d="M52.753 124.89c.028.06.525 1.089 2.006 2.098s3.935 1.986 7.82 1.984c3.868 0 6.074-.784 7.333-1.626s1.535-1.74 1.555-1.832l-.972-.248.015.004-.015-.005v.001l.015.004-.015-.005c-.029.078-.262.725-1.35 1.385s-3.064 1.325-6.565 1.325c-3.72-.001-5.95-.922-7.254-1.81a6.04 6.04 0 0 1-1.33-1.203c-.128-.161-.215-.291-.268-.378l-.055-.096-.01-.02-.032.017.033-.016-.001-.001-.032.017.033-.016-.911.42" fill="#1a1919"/><path d="M26.305 97.675c.365 5.309 2.865 13.535 11.942 13.25 10.143-.318 12.233-5.795 11.945-12.729-.425-10.303-5.778-16.18-12.222-16.18s-12.18 8.149-11.665 15.66" fill="#fffffe"/><g fill="#513133"><path d="M33.582 98.735c0 5.666 3.674 10.258 8.204 10.258s8.206-4.593 8.206-10.258-3.673-10.258-8.206-10.258-8.204 4.594-8.204 10.258"/><path d="M45.551 84.686c-.795-.924-1.774-1.76-2.943-2.324-1.17-.558-2.504-.807-3.781-.741a9.85 9.85 0 0 0-1.887.273l-1.69.5a17.29 17.29 0 0 0-3.264 1.499c-2.083 1.227-4.324 2.976-5.451 5.124-1.164 2.139-1.809 6.323-1.922 8.641.317 7.156 4.23 11.313 4.23 11.313-1.809-3.904-2.082-8.627-1.738-12.896.191-2.133 2.047-7.449 5.059-9.574s7.359-3.155 12.89 1.864c5.296 4.801 5.696 15.67 5.934 16.703 0 0 1.212-14.374-5.437-20.381"/></g><path d="M97.173 97.675c0 10.313-2.864 13.535-11.942 13.25-10.143-.318-12.233-5.795-11.946-12.729.426-10.303 5.778-16.18 12.223-16.18s11.665 8.131 11.665 15.66" fill="#fffffe"/><path d="M96.193 98.735c0 5.666-3.673 10.258-8.203 10.258s-8.205-4.593-8.205-10.258 3.672-10.258 8.205-10.258 8.203 4.594 8.203 10.258M77.927 84.686c.794-.924 1.774-1.76 2.943-2.324 1.17-.558 2.503-.807 3.782-.741a9.81 9.81 0 0 1 1.886.273l1.69.499a17.46 17.46 0 0 1 3.265 1.5c2.083 1.227 4.322 2.976 5.45 5.124 1.165 2.139 1.809 6.323 1.922 8.641-.318 7.156-4.23 11.313-4.23 11.313 1.808-3.904 2.083-8.627 1.737-12.896-.188-2.133-2.046-7.449-5.057-9.574s-7.36-3.155-12.891 1.864c-5.296 4.801-5.695 15.67-5.934 16.703 0 0-1.212-14.374 5.437-20.381" fill="#513133"/><g fill="#f8d2ba"><path d="M101.596 115.814h23.385v9.302h-23.385z" clip-path="url(#Clip_2)" transform="matrix(1.003126 0 0 .997114 -80.402564 -3.241618)"/><path d="M90.934 121.297c-6.42 0-11.614-2.047-11.624-4.594-.008-2.56 5.23-4.657 11.702-4.679.04-.001.08-.001.12-.001 3.564 0 6.749.632 8.879 1.629-.221 2.239-.524 4.37-.916 6.347-2.097.794-4.929 1.286-8.048 1.298h-.113"/></g><path d="M99.096 119.999c.392-1.976.695-4.108.916-6.347 1.704.799 2.733 1.832 2.738 2.963.005 1.327-1.399 2.53-3.653 3.383" fill="#f5c2a6"/><path d="M25.844 94.908c-2.866-1.085-5.482-3.612-6.497-4.442 0 0 1.219 2.768 2.328 3.637.564.431 1.162.823 1.84 1.04s2.235.438 3.032.262l-.703-.498m48.022.417c-2.867-1.085-5.482-3.612-6.497-4.441 0 0 1.219 2.768 2.327 3.637.565.43 1.163.823 1.84 1.04s2.236.437 3.033.262l-.703-.499" fill="#513133"/><path d="M144.513 60.984C138.494 9.225 79.401-3.655 65.555 1.73 43.103.342 1.51 24.619.833 60.34.635 70.793 2.069 85.248 17.42 95.232c-2.66-9.518-1.443-17.696 2.103-24.499 3.208 6.699 9.397 12.837 18.885 17.179-3.564-9.258-1.401-20.132 2.631-30.036.567 27.653 25.32 32.514 25.32 32.514s1.626-14.365 1.978-30.518c.098-4.506.341-8.655.67-12.429 3.436 11.76 8.046 29.135 9.663 42.632 13.796-12.187 16.027-22.77 13.185-31.351 22.109 24.531 14.937 75.546 14.937 75.546 34.989-4.969 41.31-42.439 37.722-73.286" fill="#bd8167"/><path d="M144.513 60.984C138.494 9.225 79.401-3.655 65.555 1.73c-6.44-.398-14.454 1.319-22.626 4.807 19.989-2.542 46.372-3.744 68.808 22.386a86.31 86.31 0 0 1 5.541 7.218c2.121-1.919 4.93-3.099 8.023-3.099 6.591 0 11.933 5.312 11.933 11.864 0 5.621-3.937 10.318-9.218 11.543 8.52 21.663 10.372 47.561-1.12 69.455 17.284-13.824 20.363-41.304 17.616-64.919" fill="#ad765e"/><path d="M124.779 85.637s15.71-6.367 12.098 10.388-16.913 15.941-16.913 15.941" fill="#ffeeda"/><path d="M124.968 86.099l.12-.047c.572-.217 3.112-1.107 5.658-1.103 1.57-.001 3.112.334 4.237 1.285s1.925 2.544 1.931 5.314c0 1.224-.162 2.672-.529 4.372-1.627 7.522-5.186 11.361-8.567 13.377s-6.624 2.177-7.56 2.176a5.07 5.07 0 0 1-.204-.003l-.062-.002-.061.995a5.55 5.55 0 0 0 .327.007c1.047-.001 4.467-.174 8.075-2.317s7.368-6.274 9.032-14.023c.378-1.755.551-3.271.551-4.582.005-2.951-.892-4.906-2.285-6.074s-3.185-1.522-4.886-1.522c-3.165.004-6.125 1.214-6.156 1.223l.378.923" fill="#1a1919"/><path d="M91.855 58.724c14.115 13.656 12.703 49.618 10.894 57.892-6.02 27.524-10.393 30.785-10.393 30.785s26.081-7.375 32.1-30.412c5.294-20.26 2.724-56.725-14.975-66.795" fill="#bd8167"/><path d="M92.28 58.3c2.874 2.792 4.948 6.274 6.522 9.875 1.572 3.619 2.671 7.408 3.495 11.235 1.625 7.669 2.209 15.501 2.169 23.308-.039 3.906-.215 7.809-.731 11.707-.254 1.971-.758 3.872-1.172 5.765l-1.376 5.682c-.965 3.777-2.018 7.536-3.27 11.243-.629 1.853-1.305 3.692-2.09 5.499-.393.902-.813 1.798-1.288 2.675a17.94 17.94 0 0 1-.768 1.299 9.98 9.98 0 0 1-.447.633c-.18.221-.293.389-.605.657l-.527-1.055c4.634-1.422 9.145-3.542 13.283-6.143 4.141-2.613 7.95-5.775 11.103-9.509 3.147-3.729 5.609-8.045 7.062-12.701 1.408-4.674 2.115-9.563 2.531-14.439.764-9.768.168-19.674-2.04-29.212-1.135-4.755-2.715-9.425-5.016-13.737-2.315-4.277-5.412-8.256-9.633-10.887 4.426 2.291 7.833 6.236 10.267 10.539 2.467 4.329 4.089 9.073 5.248 13.881 1.166 4.816 1.814 9.739 2.123 14.671.302 4.934.256 9.886-.161 14.811-.433 4.922-1.189 9.827-2.604 14.595-1.445 4.765-3.926 9.2-7.11 13.032-3.189 3.838-7.046 7.09-11.236 9.783-4.213 2.677-8.679 4.919-13.487 6.47h-.001a.6.6 0 0 1-.743-.409c-.066-.229.012-.467.182-.614l.036-.031a3.98 3.98 0 0 0 .372-.427 8.69 8.69 0 0 0 .395-.559c.254-.388.492-.797.716-1.213.453-.835.86-1.703 1.244-2.583.764-1.762 1.432-3.577 2.053-5.406 1.238-3.663 2.284-7.399 3.244-11.156l1.369-5.655c.416-1.902.912-3.771 1.153-5.66.505-3.812.682-7.691.72-11.555.039-7.732-.542-15.496-2.142-23.049-.811-3.77-1.892-7.487-3.423-11.009-1.535-3.509-3.53-6.846-6.267-9.503-.238-.23-.242-.609-.009-.846s.613-.241.85-.01h.001l.007.008" fill="#1a1919"/><g fill="#fffffe"><use xlink:href="#A"/><use xlink:href="#A" x="51.57"/></g><path d="M40.024 73.867c-.06-.059-2.075-1.976-5.765-1.979-2.483-.002-5.68.881-9.452 3.696-.266.198-.32.573-.12.838s.577.318.843.12c3.615-2.693 6.538-3.455 8.73-3.457 1.628 0 2.868.423 3.703.842a6.42 6.42 0 0 1 .937.568 4.13 4.13 0 0 1 .228.178l.051.045.009.009.058-.061-.058.06v.001l.058-.061-.058.06c.238.23.619.224.851-.013s.226-.615-.013-.846m35.673.859l-.058-.06.058.061v-.001l-.058-.06.058.061c.051-.048 1.782-1.644 4.927-1.642 2.192.002 5.115.764 8.73 3.457.266.198.643.145.843-.12s.145-.639-.12-.838c-3.773-2.815-6.97-3.698-9.452-3.696-3.689.003-5.705 1.92-5.765 1.979-.239.23-.245.609-.013.846s.613.243.852.013" fill="#1a1919"/><path d="M68.306 61.154c-8.015 1.046-18.11 1.613-27.077-.113.366 3.931 1.237 7.358 2.458 10.332 8.623-.99 17.423-3.709 24.497-6.403l.122-3.816m-28.376-.377c-4.135-.912-7.99-2.341-11.229-4.485-22.168-14.677-12.39-30.804-12.39-30.804S-1.29 38.798 14.529 61.74c5.106 7.404 13.428 9.994 22.537 10.019.55-3.674 1.562-7.373 2.864-10.982" fill="#f6cdbe"/><path d="M116.854 132.33c11.022-4.207 18.336-12.407 22.855-22.485s6.29-22.052 6.291-33.941a130.24 130.24 0 0 0-.889-14.989c-2.616-22.534-15.236-37.8-29.812-47.377C100.717 3.957 84.196.005 73.53 0c-3.387.002-6.185.395-8.194 1.174l.219.556.038-.597a31.65 31.65 0 0 0-1.915-.058c-11.609.01-27.23 6.041-40.11 16.437C10.699 27.908.568 42.722.231 60.329l-.016 1.636c.001 5.181.511 11.208 2.881 17.157s6.61 11.809 13.995 16.61l1.338.869L18 95.072c-.972-3.478-1.417-6.765-1.417-9.864a30.35 30.35 0 0 1 3.475-14.199l-.535-.275-.544.257c3.276 6.842 9.585 13.076 19.177 17.465l1.342.614-.529-1.371c-1.228-3.191-1.763-6.588-1.763-10.086-.001-6.406 1.801-13.153 4.391-19.513l-.558-.224-.602.012c.278 14.01 6.739 22.348 13.113 27.093 6.374 4.754 12.64 5.984 12.693 5.996l.642.127.072-.646c.001-.011 1.629-14.388 1.982-30.572.097-4.493.34-8.629.668-12.39l-.6-.052-.578.167c3.432 11.744 8.036 29.107 9.643 42.536l.136 1.137.861-.761c10.526-9.292 14.468-17.768 14.468-25.209 0-2.377-.403-4.641-1.11-6.776l-.572.187-.448.399a43.81 43.81 0 0 1 3.761 4.826c.185.274.559.347.835.164s.35-.556.165-.831a44.73 44.73 0 0 0-3.863-4.957l-1.919-2.129.899 2.715a20.24 20.24 0 0 1 1.05 6.401c-.001 6.996-3.687 15.144-14.064 24.315l.4.448.597-.071c-1.625-13.565-6.242-30.951-9.682-42.727l-.899-3.078-.279 3.193a191.53 191.53 0 0 0-.672 12.468c-.176 8.06-.669 15.679-1.119 21.281l-.596 6.694-.259 2.489.598.067.116-.587-.06-.013c-.673-.142-6.768-1.553-12.719-6.205-5.949-4.662-11.776-12.503-12.056-25.721l-.06-2.915-1.099 2.702c-2.626 6.453-4.477 13.331-4.479 19.961 0 3.619.554 7.165 1.844 10.514l.562-.214.252-.543c-9.383-4.296-15.453-10.338-18.594-16.893l-.521-1.087-.557 1.069a31.56 31.56 0 0 0-3.609 14.749c0 3.214.462 6.61 1.462 10.185l.58-.16.33-.501c-7.184-4.676-11.244-10.306-13.536-16.05S1.418 67.07 1.418 61.966l.016-1.614c.321-17.14 10.206-31.659 22.892-41.911C37.001 8.191 52.475 2.262 63.678 2.271a29.86 29.86 0 0 1 1.84.056l.133.008.123-.048c1.781-.695 4.467-1.093 7.755-1.091 10.384-.005 26.757 3.899 41.105 13.34 14.356 9.448 26.701 24.373 29.28 46.516.563 4.839.881 9.841.881 14.851.001 11.772-1.757 23.59-6.186 33.453s-11.5 17.77-22.187 21.856a.6.6 0 0 0-.346.773c.119.308.467.463.777.344" fill="#1a1919"/><path d="M107.726 56.676s10.386 10.794 9.696 36.561c8.025-12.63.335-34.732-9.696-36.561M15.939 124.48S6.976 109.69 3.901 85.842c-2.508 19.693 1.756 31.908 12.038 38.638" fill="#f6cdbe"/><defs><path id="A" d="M36.366 96.225c0 1.876 1.178 3.394 2.631 3.394s2.633-1.519 2.633-3.394-1.178-3.391-2.633-3.391-2.631 1.52-2.631 3.391"/></defs></svg>